<?xml version="1.0" standalone="no"?>
<!DOCTYPE svg PUBLIC "-//W3C//DTD SVG 20010904//EN"
 "http://www.w3.org/TR/2001/REC-SVG-20010904/DTD/svg10.dtd">
<svg version="1.0" xmlns="http://www.w3.org/2000/svg"
 width="100.000000pt" height="100.000000pt" viewBox="0 0 100.000000 100.000000"
 preserveAspectRatio="xMidYMid meet">
<metadata>
Created by potrace 1.14, written by Peter Selinger 2001-2017
</metadata>
<g transform="translate(0.000000,100.000000) scale(0.100000,-0.100000)"
fill="#000000" stroke="none">
<path d="M410 981 c0 -5 -12 -8 -26 -8 -14 0 -35 -5 -47 -11 -12 -5 -41 -18
-64 -27 -24 -10 -43 -22 -43 -27 0 -4 -6 -8 -13 -8 -20 0 -112 -94 -146 -150
-17 -27 -29 -50 -26 -50 3 0 -4 -18 -15 -40 -11 -23 -18 -45 -15 -51 4 -5 2
-15 -3 -22 -24 -29 1 -264 30 -275 4 -2 8 -11 8 -20 0 -9 11 -30 25 -46 13
-16 23 -31 21 -35 -1 -3 17 -25 41 -48 23 -23 43 -40 43 -38 0 2 11 -6 25 -19
13 -12 44 -31 67 -41 24 -9 52 -22 63 -27 12 -5 27 -10 35 -11 8 -2 21 -7 29
-11 10 -7 12 -5 6 5 -6 11 -5 12 6 1 14 -13 174 -18 166 -4 -3 4 13 8 34 9 22
0 45 5 52 11 7 5 20 8 30 7 9 -2 15 0 12 5 -4 7 31 23 48 21 4 -1 7 3 7 8 0 5
8 12 18 15 9 3 39 27 65 53 70 71 77 79 77 91 0 7 4 12 8 12 8 0 34 56 36 75
1 6 4 12 8 15 4 3 9 18 12 33 2 15 8 37 11 48 6 17 4 20 -6 13 -12 -6 -12 -5
-1 9 16 19 14 125 -2 146 -8 10 -8 13 0 8 15 -9 -16 77 -50 141 -16 28 -34 52
-39 52 -6 0 -8 3 -4 6 3 3 -9 20 -27 37 -54 51 -86 77 -86 69 0 -4 -4 -2 -8 4
-9 15 -67 44 -87 44 -8 0 -15 4 -15 8 0 5 -6 9 -12 10 -23 2 -43 7 -57 16 -10
7 -12 5 -6 -5 6 -11 5 -12 -6 -1 -15 14 -179 17 -179 3z"/>
</g>
</svg>
